<?xml version="1.0" standalone="no"?>
<!DOCTYPE svg PUBLIC "-//W3C//DTD SVG 20010904//EN"
 "http://www.w3.org/TR/2001/REC-SVG-20010904/DTD/svg10.dtd">
<svg version="1.0" xmlns="http://www.w3.org/2000/svg"
 width="1003.000000pt" height="1003.000000pt" viewBox="0 0 1003.000000 1003.000000"
 preserveAspectRatio="xMidYMid meet">
<metadata>
Created by potrace 1.11, written by Peter Selinger 2001-2013
</metadata>
<g transform="translate(0.000000,1003.000000) scale(0.100000,-0.100000)"
fill="#000000" stroke="none">
<path d="M2845 9075 c-51 -25 -63 -41 -64 -86 -1 -39 48 -128 101 -183 48 -50
52 -66 18 -66 -11 0 -35 -9 -55 -20 -20 -11 -46 -20 -59 -20 -12 0 -31 -9 -41
-20 -26 -28 -37 -25 -74 20 -18 22 -41 40 -52 40 -19 0 -199 -144 -199 -160 0
-4 -34 -10 -76 -12 -70 -3 -78 -6 -100 -33 -13 -17 -24 -40 -24 -53 0 -32 26
-79 47 -87 10 -3 33 -19 51 -35 29 -27 32 -35 32 -90 0 -74 -5 -77 -108 -62
-72 10 -79 10 -109 -11 -18 -12 -33 -25 -33 -30 0 -4 -18 -27 -40 -51 -30 -32
-51 -45 -78 -49 -20 -3 -107 -14 -192 -25 -85 -11 -167 -24 -181 -30 -30 -12
-119 -112 -119 -134 0 -8 22 -39 50 -70 42 -47 50 -63 50 -95 0 -36 -4 -40
-60 -75 -33 -21 -63 -44 -66 -53 -8 -20 3 -60 21 -79 16 -15 21 -46 7 -46 -4
0 -29 -20 -55 -43 l-47 -44 21 -59 c15 -43 19 -74 16 -115 -3 -31 -2 -60 2
-65 12 -19 59 -43 94 -49 20 -4 38 -13 41 -21 3 -8 17 -19 31 -24 24 -9 25
-14 25 -84 0 -87 -6 -96 -82 -119 -67 -22 -118 -67 -118 -107 0 -47 -16 -43
-65 15 -41 48 -56 57 -115 75 -104 31 -132 27 -155 -24 -8 -17 -19 -38 -24
-46 -29 -48 -33 -70 -26 -139 7 -66 6 -71 -13 -71 -29 0 -44 -24 -50 -78 -2
-26 -8 -51 -12 -57 -5 -5 -18 -37 -29 -70 -60 -172 -58 -168 -92 -184 -42 -20
-68 -59 -109 -163 -18 -46 -43 -92 -56 -103 -35 -31 -47 -63 -40 -106 6 -37 5
-39 -21 -39 -44 0 -102 -19 -124 -41 -10 -10 -19 -32 -19 -47 0 -33 -23 -57
-64 -68 -17 -4 -36 -20 -48 -41 -13 -22 -42 -46 -81 -66 -33 -18 -71 -38 -86
-46 -35 -19 -41 -29 -41 -74 0 -63 22 -102 69 -120 63 -26 115 -22 135 8 24
36 71 58 96 45 26 -14 63 -4 91 26 25 26 74 32 112 13 33 -17 77 -61 77 -77 0
-8 12 -36 27 -63 l28 -49 -57 -55 c-31 -30 -63 -55 -70 -55 -7 0 -26 -13 -41
-30 -16 -16 -33 -30 -38 -30 -5 0 -12 -12 -15 -27 -11 -45 -40 -96 -73 -127
-23 -22 -31 -39 -31 -63 0 -29 -7 -38 -47 -66 -130 -88 -164 -142 -127 -196
17 -24 92 -61 124 -61 15 0 19 -9 22 -47 3 -45 5 -48 33 -51 23 -2 35 -12 53
-42 12 -22 29 -40 36 -40 7 0 19 -7 26 -15 7 -9 30 -15 54 -15 l41 -1 -34 -18
c-57 -31 -86 -110 -62 -174 8 -21 18 -25 75 -30 80 -8 89 -5 108 36 9 19 28
37 45 43 l30 11 7 -66 c10 -114 8 -133 -20 -162 -33 -34 -43 -121 -24 -209 17
-82 38 -95 155 -103 111 -7 121 -11 135 -51 6 -18 24 -46 41 -62 33 -32 59
-74 59 -98 0 -8 -26 -33 -57 -55 -74 -50 -90 -70 -91 -112 -1 -43 15 -104 32
-122 8 -7 60 -21 117 -31 57 -10 114 -20 127 -22 19 -4 22 -10 22 -55 0 -70
20 -104 80 -131 44 -20 52 -29 49 -54 0 -4 4 -10 9 -13 5 -3 21 -29 36 -58 34
-68 35 -127 1 -172 -29 -40 -39 -98 -28 -161 7 -38 14 -48 45 -65 l37 -20 25
24 c17 16 42 25 83 30 34 4 75 17 96 30 33 20 46 22 110 18 40 -4 92 -11 117
-16 25 -6 70 -10 100 -11 105 -1 128 -9 159 -55 l28 -42 -42 -47 c-24 -25 -50
-46 -59 -46 -9 0 -34 -8 -56 -17 -32 -14 -40 -23 -40 -44 0 -24 -4 -27 -46
-32 -34 -3 -55 -13 -81 -38 -32 -31 -34 -37 -28 -74 3 -22 11 -89 16 -150 17
-207 17 -208 59 -248 22 -22 61 -45 95 -57 52 -18 60 -18 92 -5 20 8 46 15 59
15 16 0 40 16 67 45 l43 44 114 8 c63 4 120 7 125 6 6 -1 30 -7 55 -14 25 -6
88 -13 140 -15 52 -2 122 -7 155 -13 70 -12 151 6 225 49 36 21 52 40 80 96
37 74 40 113 25 277 l-7 67 57 0 c46 0 60 4 80 24 13 13 27 21 30 18 3 -4 4 0
1 8 -2 8 -7 27 -10 42 -5 20 -17 30 -51 44 -54 20 -65 37 -65 101 0 31 -7 59
-20 78 -11 17 -20 42 -20 58 0 23 4 27 28 27 15 0 47 -14 72 -31 35 -23 50
-28 74 -23 33 7 86 54 86 76 0 8 16 20 36 27 54 20 143 -10 184 -61 17 -21 36
-38 42 -38 5 0 22 -12 37 -26 36 -36 164 -132 193 -144 42 -19 114 -65 136
-88 12 -12 34 -22 50 -23 15 0 68 -2 117 -3 100 -2 156 -19 216 -67 20 -16 43
-29 52 -29 8 0 26 -9 40 -21 15 -11 44 -23 64 -26 21 -3 53 -17 71 -31 37 -28
189 -82 231 -82 15 0 60 -11 99 -25 39 -14 90 -25 111 -25 27 0 61 -12 105
-35 55 -31 70 -35 107 -29 24 3 62 16 84 29 28 15 65 24 120 29 66 5 83 10 99
28 16 20 28 23 86 23 56 0 73 -4 92 -21 34 -32 62 -44 86 -37 24 6 82 -14 82
-28 0 -5 14 -9 31 -9 17 0 38 -4 48 -10 20 -10 95 -15 408 -26 l202 -7 48 30
c43 27 61 31 144 35 95 5 149 21 149 44 0 13 22 24 48 24 9 0 24 -15 32 -33
14 -31 17 -32 75 -32 53 0 61 3 71 24 17 33 69 64 97 57 12 -3 40 -22 62 -42
59 -54 202 -114 271 -114 35 0 69 -7 94 -20 30 -15 61 -20 130 -22 79 -1 92
-4 101 -20 6 -11 24 -24 40 -30 23 -8 28 -14 23 -30 -4 -13 -2 -18 8 -16 23 5
111 -40 151 -76 21 -20 41 -35 45 -35 4 0 11 -8 17 -18 5 -10 20 -35 34 -56
l24 -38 -21 -29 c-12 -16 -19 -36 -16 -45 4 -9 -2 -25 -13 -38 -43 -48 -39
-68 18 -97 46 -24 106 -26 137 -4 22 15 24 14 48 -11 24 -26 29 -27 94 -22
l68 6 31 -39 c25 -32 44 -43 100 -60 37 -11 76 -20 85 -20 22 0 64 45 83 90
l14 35 16 -30 c35 -68 62 -79 104 -46 25 19 54 28 128 39 36 6 48 13 61 37 11
20 26 31 45 33 15 2 41 17 57 33 17 16 34 27 39 23 5 -3 32 2 59 11 36 12 52
23 56 39 3 12 21 30 40 41 27 14 37 29 49 68 18 59 19 103 4 112 -5 4 -14 18
-20 32 -11 28 -33 26 -37 -4 -2 -12 -13 -24 -27 -27 -14 -4 -27 -18 -33 -36
-10 -27 -15 -30 -56 -30 -26 0 -51 -6 -59 -15 -8 -8 -17 -11 -21 -8 -3 4 -6 0
-6 -9 0 -8 -23 -29 -51 -47 -39 -24 -62 -31 -101 -31 -46 0 -54 4 -94 44 -50
49 -49 44 -37 243 3 62 10 110 15 107 4 -3 13 7 18 21 5 14 15 23 20 20 6 -3
13 1 16 9 3 8 27 29 54 46 27 17 51 38 54 47 4 8 13 13 21 9 8 -3 18 1 22 8
10 17 47 36 70 36 27 0 166 107 180 138 7 15 12 43 13 62 0 27 8 42 33 64 17
16 43 32 57 36 14 3 33 21 45 42 26 48 11 82 -47 108 -38 17 -45 17 -76 4 -73
-30 -162 -8 -162 41 0 12 7 36 15 51 19 36 19 78 2 93 -8 6 -27 13 -43 16 -24
5 -39 -2 -84 -40 -59 -49 -100 -65 -166 -65 -35 0 -47 6 -73 35 -17 20 -31 43
-31 53 0 17 41 123 51 132 3 3 12 23 21 45 13 32 22 41 48 46 17 4 36 11 42
17 18 18 3 56 -32 80 -29 19 -43 22 -80 17 -25 -4 -55 -13 -67 -21 -12 -8 -29
-14 -38 -14 -8 0 -15 -6 -15 -14 0 -18 -44 -26 -141 -26 -60 0 -88 5 -118 21
-25 13 -62 21 -98 22 -52 2 -65 -2 -123 -38 l-65 -40 -110 0 c-132 0 -124 -4
-300 160 -37 35 -75 128 -75 186 l0 40 123 -3 122 -3 3 32 c3 31 -31 83 -119
179 -11 13 -19 36 -19 59 0 31 7 43 46 80 56 51 60 82 18 126 -15 16 -32 29
-37 29 -6 0 -35 20 -65 45 -30 25 -60 45 -68 45 -7 0 -44 -11 -82 -25 -53 -19
-89 -25 -151 -25 l-81 0 0 70 c0 54 6 86 26 132 49 116 16 223 -100 332 -142
132 -136 130 -221 96 -27 -10 -67 -22 -87 -25 -44 -7 -93 -45 -102 -78 -10
-40 8 -81 42 -98 82 -42 84 -70 7 -105 -98 -43 -122 -35 -235 72 -30 28 -73
67 -95 87 l-40 35 13 44 c21 67 36 167 36 235 1 59 -1 65 -35 99 -26 25 -47
37 -77 41 -23 3 -47 12 -53 19 -16 19 -2 65 21 71 49 13 26 83 -36 109 -29 12
-39 12 -76 -2 -24 -9 -63 -18 -88 -21 -42 -4 -48 -1 -92 42 -27 25 -56 45 -65
45 -21 0 -83 36 -83 48 0 9 57 39 90 46 25 5 50 49 50 88 0 15 -38 57 -113
125 l-35 32 5 79 c7 98 1 125 -32 140 -34 16 -65 15 -107 -3 l-35 -14 -17 37
c-8 20 -20 49 -25 63 -5 14 -31 54 -58 90 -27 35 -58 83 -68 107 -10 23 -22
42 -27 42 -4 0 -8 51 -8 114 0 107 -2 118 -28 163 -15 26 -34 61 -42 77 -19
38 -62 49 -149 42 -36 -3 -109 -9 -161 -12 l-95 -6 -11 30 c-7 18 -28 39 -53
53 -22 13 -41 31 -41 39 0 8 -12 47 -25 85 -14 39 -25 81 -25 94 0 13 -9 33
-20 45 -12 12 -41 45 -67 74 -40 45 -51 52 -83 52 -32 0 -41 6 -69 45 -26 36
-40 46 -71 51 -35 6 -41 11 -50 43 -5 20 -10 58 -10 84 0 27 -5 57 -10 67 -16
30 -92 78 -135 86 -25 4 -49 18 -64 36 -14 15 -32 28 -39 28 -25 0 -4 53 33
85 47 41 115 134 115 157 0 11 15 34 34 51 18 18 39 50 46 72 13 41 52 85 73
85 7 0 21 -7 31 -15 11 -8 37 -15 57 -15 32 0 42 6 69 40 17 22 55 56 84 74
28 19 74 62 101 95 28 34 57 63 65 66 8 3 23 19 33 36 9 17 27 33 38 36 35 9
47 54 35 123 -6 32 -17 65 -23 71 -7 7 -49 23 -93 36 -45 13 -103 38 -131 58
-61 42 -127 48 -156 16 -63 -68 -81 -89 -85 -101 -3 -11 -12 -12 -50 -1 -53
15 -85 4 -90 -31 -4 -31 -28 -26 -91 23 -29 21 -60 39 -69 39 -10 0 -25 11
-33 24 -9 13 -24 28 -33 32 -9 4 -134 10 -276 14 l-259 6 -49 53 c-81 88 -83
94 -82 272 1 131 4 160 19 182 27 42 14 87 -41 152 -32 37 -60 58 -83 65 -48
13 -46 14 -83 -19 -18 -16 -54 -34 -78 -41 -25 -7 -57 -18 -71 -26 -23 -12
-29 -11 -49 8 -12 11 -29 36 -36 55 -8 18 -25 38 -37 42 -13 5 -29 17 -37 27
-27 31 -76 44 -173 44 -79 0 -98 3 -120 20 -17 14 -23 26 -20 40 4 16 -2 23
-30 35 -20 8 -38 19 -42 25 -3 5 -35 10 -69 10 -44 0 -67 5 -76 15 -20 24
-115 18 -175 -10z"/>
</g>
</svg>
